#tb 0: 1/25
#media_type 0: video
#codec_id 0: vp8
#dimensions 0: 352x288
#sar 0: 0/1
0,         -1,          0,        1,     4689, 0x06c63308
0,          0,          1,        1,     5758, 0x227c405e
0,          1,          2,        1,     1456, 0x40e9d1ff
0,          2,          3,        1,     2333, 0xfa248306
0,          3,          4,        1,     2225, 0x2bb64b0e
0,          4,          5,        1,     2378, 0xcd679a60
0,          5,          6,        1,     2150, 0xf3ed3615
0,          6,          7,        1,     2354, 0x55e28de4
0,          7,          8,        1,     2123, 0x249d0d57
0,          8,          9,        1,     2318, 0x75628608
0,          9,         10,        1,     2227, 0xc29c3cbf
0,         10,         11,        1,     2484, 0xf498e1b2
0,         11,         12,        1,     8464, 0xddc8bddc
0,         12,         13,        1,     2398, 0xd37683c2
0,         13,         14,        1,     1887, 0x3ae895b4
0,         14,         15,        1,     2197, 0xcdf944f7
0,         15,         16,        1,     2487, 0xe58ec53b
0,         16,         17,        1,     1838, 0x77587207
0,         17,         18,        1,     2333, 0x17215b45
0,         18,         19,        1,     2362, 0xee708f6a
0,         19,         20,        1,     2439, 0x429cb215
0,         20,         21,        1,     2197, 0xd33a1fa1
0,         21,         22,        1,     2788, 0xbcd950bd
0,         22,         23,        1,     2097, 0xe14103bf
0,         23,         24,        1,    11703, 0xa53d67c8
0,         24,         25,        1,     3042, 0xe05bb1f7
0,         25,         26,        1,     1944, 0x9be6a075
0,         26,         27,        1,     2481, 0xb50dd539
0,         27,         28,        1,     2026, 0xec68ed1d
0,         28,         29,        1,     2466, 0xf1e8a91e
0,         29,         30,        1,     2067, 0x6885e0b3
0,         30,         31,        1,     2481, 0x81fd9c89
0,         31,         32,        1,     2006, 0x3cb6bcb2
0,         32,         33,        1,     2515, 0xf79fcac6
0,         33,         34,        1,     1857, 0x7be86565
0,         34,         35,        1,     2454, 0x7cd496cb
0,         35,         36,        1,    11992, 0x8a3e0c94
0,         36,         37,        1,     2434, 0x36f49375
0,         37,         38,        1,     2096, 0xe436edee
0,         38,         39,        1,     2378, 0x65dd75b4
0,         39,         40,        1,     2230, 0x368b3687
0,         40,         41,        1,     2616, 0x72e1e0fd
0,         41,         42,        1,     1826, 0xc3e1707c
0,         42,         43,        1,     2290, 0x628a3b4b
0,         43,         44,        1,     2322, 0x01475db9
0,         44,         45,        1,     2276, 0x422a2e15
0,         45,         46,        1,     2530, 0x172aaf15
0,         46,         47,        1,     1837, 0x5512655a
0,         47,         48,        1,    12183, 0xe6b25859
0,         48,         49,        1,     2846, 0x6c045498
